<?xml version="1.0" encoding="UTF-8"?>
<svg width="24px" height="24px" viewBox="0 0 24 24" version="1.1" xmlns="http://www.w3.org/2000/svg" xmlns:xlink="http://www.w3.org/1999/xlink">
    <!-- Generator: sketchtool 42 (36781) - http://www.bohemiancoding.com/sketch -->
    <title>13314DB2-A207-46C7-8BAA-7034CAA17542</title>
    <desc>Created with sketchtool.</desc>
    <defs>
        <path d="M3.61577727,3.81578947 C1.40525095,6.02631579 0.299987793,8.72568421 0.299987793,11.9151579 C0.299987793,15.0111579 1.40525095,17.6637895 3.61577727,19.8730526 C5.82630358,22.1164211 8.52693516,23.2368421 11.7164088,23.2368421 C14.8111457,23.2368421 17.4625141,22.1164211 19.6743036,19.8730526 C21.9164088,17.6637895 23.0368299,15.0111579 23.0368299,11.9151579 C23.0368299,8.72568421 21.9164088,6.02631579 19.6743036,3.81578947 C17.4625141,1.60526316 14.8111457,0.5 11.7164088,0.5 C8.52693516,0.5 5.82630358,1.60526316 3.61577727,3.81578947 Z" id="path-1"></path>
        <mask id="mask-2" maskContentUnits="userSpaceOnUse" maskUnits="objectBoundingBox" x="0" y="0" width="22.7368421" height="22.7368421" fill="white">
            <use xlink:href="#path-1"></use>
        </mask>
    </defs>
    <g id="test-sme" stroke="none" stroke-width="1" fill="none" fill-rule="evenodd">
        <g id="test-sme-mobile" transform="translate(-265.000000, -1078.000000)" stroke="#DD5656">
            <g id="icon_1" transform="translate(265.000000, 1078.000000)">
                <path d="M11.3684211,16.3789474 L11.3684211,16.7578947" id="Stroke-1-Copy-2" stroke-width="1.5" stroke-linecap="round" stroke-linejoin="round"></path>
                <use id="Fill-2-Copy-2" mask="url(#mask-2)" stroke-width="3" xlink:href="#path-1"></use>
                <path d="M11.3684211,6.57841026 L11.3684211,13.7353517" id="Stroke-1-Copy-2" stroke-width="1.5" stroke-linecap="round" stroke-linejoin="round"></path>
            </g>
        </g>
    </g>
</svg>